<svg width="395" height="481" viewBox="0 0 395 481" xmlns="http://www.w3.org/2000/svg" role="img" aria-label="NE">
    <g transform="matrix(1,0,0,1,-235.345,-456.229)">
        <g transform="matrix(1.33337,0,0,0.81347,-849.516,-141.849)">
            <path d="M978.856,770.296C976.244,767.978 965.864,769.967 954.347,778.907C942.279,788.274 912.123,817.22 875.772,927.936C865.177,960.208 851.28,1009.08 839.426,1064.73C838.518,1068.99 838.535,1069 838.444,1069.36C838.168,1070.46 837.897,1071.56 837.542,1072.6C834.7,1080.85 829.865,1082.52 829.04,1082.81C823.379,1084.76 819.421,1079.91 818.746,1079.08C814.113,1073.4 813.724,1065.33 813.657,1063.95C813.627,1063.32 813.497,1060.62 814.067,1056.14C816.415,1037.65 835.065,953.426 845.299,905.354C851.829,874.681 860.377,834.428 862.555,821.937C862.641,819.818 863.05,814.455 865.269,809.359C867.653,803.886 870.568,801.682 871.124,801.262C871.848,800.714 872.592,800.225 873.352,799.829C873.565,799.719 875.886,799.084 876.44,799.016C880.581,798.506 883.723,801.094 884.296,801.565C884.585,801.803 886.117,803.064 887.632,805.316C888.099,806.011 888.524,806.781 888.951,807.543C889.293,808.154 889.66,808.74 889.937,809.433C890.421,810.644 890.845,811.922 891.223,813.231C891.811,815.268 892.145,817.347 892.333,819.151C896.095,811.731 899.967,804.603 903.944,797.859C915.128,778.896 938.614,743.162 967.964,735.912C972.697,734.744 988.822,733.231 999.082,748.153C1007.22,759.983 1011.68,777.792 1010.13,791.316C1007.71,812.605 1002.41,828.978 996.705,847.508C992.381,861.55 986.053,878.556 981.59,891.921C981.457,892.317 981.709,891.515 981.59,891.921C981.361,892.697 973.127,916.835 965.797,936.436C959.433,953.451 952.465,971.479 946.627,986.782C940.518,1002.8 931.131,1031.79 929.853,1036.54C921.26,1068.45 917.259,1089.64 916.268,1094.89C914.093,1106.41 913.051,1114.01 913.008,1114.22C911.445,1122.14 901.953,1163.95 911.403,1184.8C913.643,1189.74 916.048,1192.41 919.144,1195.68C922.256,1198.96 925.705,1201.53 925.75,1201.68C925.777,1201.76 925.77,1201.83 925.826,1201.91C926.084,1202.28 928.289,1204.11 935.62,1202.8C936.805,1190.86 938.423,1179.32 940.109,1168.85C940.193,1168.32 943.875,1149.98 948.318,1133.93C949.767,1128.7 956.161,1105.61 969.204,1070.78C1003.24,979.885 1029.8,953.387 1036.63,946.688C1045.95,937.551 1052.83,934.369 1056.05,932.85C1056.06,932.845 1063.31,930.56 1071.19,930.27C1076.53,930.074 1096.22,929.639 1105.54,954.163C1117.13,984.69 1102.16,1026.21 1095.86,1042.24C1095.31,1043.64 1079.84,1094.26 1042.42,1143.24C1021.68,1170.38 1004.57,1183.7 996.879,1189.92C984.55,1199.9 974.911,1206.94 967.63,1211.89C961.586,1242.18 960.543,1268.26 967.72,1280.04C969.299,1282.63 974.517,1290.89 991.402,1290.9C991.786,1290.9 993.576,1290.9 996.206,1290.71C1003.84,1290.15 1021.38,1272.59 1044.36,1234.03C1045.34,1232.38 1048.69,1225.87 1049.06,1225.14C1049.3,1224.67 1050.71,1221.92 1053.3,1221.56C1054.09,1221.44 1054.91,1221.58 1055.67,1221.97C1056.05,1222.16 1058.18,1223.26 1059.38,1227.08C1060.55,1230.78 1059.89,1234.17 1059.78,1234.75C1059.31,1237.21 1059.2,1237.14 1058.19,1239.12C1055.3,1244.71 1055.22,1244.59 1053.12,1248.85C1028.73,1298.34 1014.48,1311.87 1011.92,1314.4C1004.21,1322.02 999.43,1323.15 994.655,1324.34C987.316,1326.15 957.511,1333.29 942.186,1294.09C935.32,1276.53 933.309,1254.32 933.801,1231.71C927.96,1233.89 923.315,1233.98 919.319,1232.13C917.109,1231.11 911.651,1229.19 906.955,1225.74C878.066,1204.49 875.171,1153.13 879.18,1102.72C879.256,1101.76 879.384,1100.16 880.808,1090.95C882.281,1081.43 887.345,1049.29 901.366,997.3C906.181,979.447 919.735,945.821 935.528,902.549C937.501,897.143 943.08,882.294 949.647,863.157C949.899,862.424 976.98,794.61 979.097,781.075C979.133,780.848 979.23,780.652 979.339,777.954C979.347,777.754 979.578,772.562 978.856,770.296ZM974.808,1180.82C985.726,1172.7 998.329,1162.62 1006.14,1155.3C1049.69,1114.53 1072.17,1058.37 1074.12,1053.66C1078.32,1043.56 1080.99,1035.67 1082.43,1031.21C1082.51,1030.96 1090.05,1003.64 1088.18,985.144C1087.85,981.931 1086.93,977.326 1085.27,977.201C1085.22,977.197 1083.51,977.197 1082.45,977.319C1075,978.18 1066.36,985.705 1065.83,986.033C1063.86,987.259 1057.6,989.205 1046.19,1004.84C1043.13,1009.02 1026.28,1031.04 1002.83,1091.96C1002.16,1093.72 992.234,1119.07 982.34,1151.87C982.05,1152.83 978.857,1162.85 974.808,1180.82Z"/>
        </g>
    </g>
</svg>
